<?xml version="1.0" encoding="UTF-8" standalone="no"?>
<!-- Created with Inkscape (http://www.inkscape.org/) -->

<svg
   xmlns:dc="http://purl.org/dc/elements/1.1/"
   xmlns:cc="http://creativecommons.org/ns#"
   xmlns:rdf="http://www.w3.org/1999/02/22-rdf-syntax-ns#"
   xmlns:svg="http://www.w3.org/2000/svg"
   xmlns="http://www.w3.org/2000/svg"
   xmlns:sodipodi="http://sodipodi.sourceforge.net/DTD/sodipodi-0.dtd"
   xmlns:inkscape="http://www.inkscape.org/namespaces/inkscape"
   id="svg2"
   version="1.1"
   inkscape:version="0.91 r13725"
   xml:space="preserve"
   width="974.40997"
   height="248.03125"
   viewBox="0 0 974.40997 248.03125"
   sodipodi:docname="logo_dessopolis.svg"><metadata
     id="metadata8"><rdf:RDF><cc:Work
         rdf:about=""><dc:format>image/svg+xml</dc:format><dc:type
           rdf:resource="http://purl.org/dc/dcmitype/StillImage" /><dc:title /></cc:Work></rdf:RDF></metadata><defs
     id="defs6"><clipPath
       clipPathUnits="userSpaceOnUse"
       id="clipPath16"><path
         d="m 0,0 779.528,0 0,198.425 L 0,198.425 0,0 Z"
         id="path18"
         inkscape:connector-curvature="0" /></clipPath><filter
       style="color-interpolation-filters:sRGB;"
       inkscape:label="Drop Shadow"
       id="filter3994"><feFlood
         flood-opacity="0.498039"
         flood-color="rgb(65,65,65)"
         result="flood"
         id="feFlood3996" /><feComposite
         in="flood"
         in2="SourceGraphic"
         operator="in"
         result="composite1"
         id="feComposite3998" /><feGaussianBlur
         in="composite1"
         stdDeviation="3"
         result="blur"
         id="feGaussianBlur4000" /><feOffset
         dx="6"
         dy="-6"
         result="offset"
         id="feOffset4002" /><feComposite
         in="SourceGraphic"
         in2="offset"
         operator="over"
         result="composite2"
         id="feComposite4004" /></filter><filter
       style="color-interpolation-filters:sRGB;"
       inkscape:label="Drop Shadow"
       id="filter4006"><feFlood
         flood-opacity="0.498039"
         flood-color="rgb(65,65,65)"
         result="flood"
         id="feFlood4008" /><feComposite
         in="flood"
         in2="SourceGraphic"
         operator="in"
         result="composite1"
         id="feComposite4010" /><feGaussianBlur
         in="composite1"
         stdDeviation="3"
         result="blur"
         id="feGaussianBlur4012" /><feOffset
         dx="6"
         dy="-6"
         result="offset"
         id="feOffset4014" /><feComposite
         in="SourceGraphic"
         in2="offset"
         operator="over"
         result="composite2"
         id="feComposite4016" /></filter><filter
       style="color-interpolation-filters:sRGB;"
       inkscape:label="Drop Shadow"
       id="filter4018"><feFlood
         flood-opacity="0.498039"
         flood-color="rgb(65,65,65)"
         result="flood"
         id="feFlood4020" /><feComposite
         in="flood"
         in2="SourceGraphic"
         operator="in"
         result="composite1"
         id="feComposite4022" /><feGaussianBlur
         in="composite1"
         stdDeviation="3"
         result="blur"
         id="feGaussianBlur4024" /><feOffset
         dx="6"
         dy="-6"
         result="offset"
         id="feOffset4026" /><feComposite
         in="SourceGraphic"
         in2="offset"
         operator="over"
         result="composite2"
         id="feComposite4028" /></filter></defs><sodipodi:namedview
     pagecolor="#ffffff"
     bordercolor="#666666"
     borderopacity="1"
     objecttolerance="10"
     gridtolerance="10"
     guidetolerance="10"
     inkscape:pageopacity="0"
     inkscape:pageshadow="2"
     inkscape:window-width="1920"
     inkscape:window-height="1022"
     id="namedview4"
     showgrid="false"
     inkscape:zoom="1.1592272"
     inkscape:cx="484.34748"
     inkscape:cy="124.01563"
     inkscape:window-x="0"
     inkscape:window-y="25"
     inkscape:window-maximized="1"
     inkscape:current-layer="g10" /><g
     id="g10"
     inkscape:groupmode="layer"
     inkscape:label="Logo_allg"
     transform="matrix(1.25,0,0,-1.25,0,248.03125)"><path
       inkscape:connector-curvature="0"
       id="path22"
       style="fill:#d22027;fill-opacity:1;fill-rule:nonzero;stroke:none;"
       d="m 81.2515,146.5158 c -2.468,2.675 -5.733,4.887 -9.795,6.635 -4.086,1.803 -8.71,3.061 -13.873,3.772 -5.185,0.765 -10.468,0.848 -15.849,0.251 -5.404,-0.542 -10.682,-1.384 -15.834,-2.525 -2.685,-0.616 -5.34,-1.38 -7.966,-2.291 -2.593,-0.834 -5.057,-1.901 -7.39,-3.201 -0.83,-0.157 -1.449,-0.513 -1.855,-1.068 -0.43,-0.5 -0.964,-0.981 -1.603,-1.441 1.806,-7.497 4.424,-15.325 7.852,-23.484 3.483,-8.136 8.061,-16.9 13.735,-26.291 1.616,-0.345 3.208,-0.476 4.773,-0.395 1.598,0.159 3.194,0.319 4.792,0.478 5.616,0.951 10.801,2.394 15.557,4.328 4.731,1.989 9.187,4.181 13.364,6.576 4.467,2.773 8.338,5.743 11.614,8.912 3.308,3.246 5.672,6.607 7.091,10.083 0.74,1.591 1.139,3.23 1.198,4.919 0.089,1.766 -0.088,3.483 -0.533,5.152 -0.468,1.723 -1.165,3.382 -2.091,4.977 -0.895,1.672 -1.958,3.209 -3.187,4.613 m -20.087,-5.656 c 1.304,-1.884 2.002,-3.927 2.095,-6.128 0.125,-2.123 -0.82,-4.216 -2.833,-6.278 -1.771,-1.576 -3.838,-3.052 -6.203,-4.431 -2.388,-1.323 -5.026,-2.431 -7.914,-3.324 -0.953,-0.018 -1.833,-0.131 -2.64,-0.342 -0.808,-0.212 -1.65,-0.341 -2.525,-0.389 -2.123,4.292 -4.303,8.336 -6.538,12.132 -2.204,3.874 -4.16,7.692 -5.868,11.454 0.87,0.366 1.752,0.704 2.645,1.015 0.947,0.335 1.999,0.649 3.156,0.942 2.535,0.362 4.924,0.694 7.165,0.996 2.273,0.378 4.683,0.431 7.23,0.157 2.765,-0.182 5.231,-0.873 7.399,-2.074 2.146,-1.147 3.756,-2.39 4.831,-3.73 m 74.028,32.587 c 0.638,-1.35 1.224,-2.765 1.759,-4.245 0.535,-1.481 1.041,-2.965 1.517,-4.453 -4.895,0.183 -9.831,0.212 -14.808,0.089 -4.918,-0.117 -10.016,-0.226 -15.293,-0.327 0.162,-1.347 0.383,-2.687 0.662,-4.02 0.28,-1.334 0.504,-2.703 0.673,-4.109 4.882,-0.066 9.569,-0.006 14.064,0.178 4.552,0.192 8.999,0.282 13.338,0.27 0.47,-1.43 0.832,-2.961 1.088,-4.594 0.308,-1.568 0.677,-3.157 1.11,-4.769 -4.38,-0.646 -8.744,-1.172 -13.092,-1.577 -4.357,-0.346 -8.943,-0.75 -13.761,-1.211 0.484,-1.546 0.964,-3.064 1.44,-4.551 0.476,-1.488 0.875,-3.074 1.197,-4.759 6.244,0.455 12.189,0.933 17.834,1.435 5.696,0.567 11.162,1.315 16.399,2.242 0.912,-2.148 1.692,-4.431 2.34,-6.849 0.707,-2.411 1.456,-4.935 2.25,-7.574 -4.11,-0.911 -8.435,-1.759 -12.976,-2.543 -4.548,-0.726 -9.297,-1.268 -14.245,-1.627 -4.897,-0.292 -9.999,-0.372 -15.304,-0.238 -5.246,0.141 -10.597,0.655 -16.052,1.543 -3.028,10.332 -5.276,19.867 -6.744,28.604 -1.41,8.745 -2.24,16.875 -2.492,24.393 8.332,0.884 16.545,1.279 24.639,1.184 8.145,-0.029 16.297,-0.86 24.457,-2.492 m 99.546,-11.818 c -3.86,3.167 -8.008,6.029 -12.442,8.586 -4.372,2.612 -9.109,4.657 -14.21,6.136 -4.694,1.392 -9.299,2.364 -13.814,2.915 -4.512,0.611 -9.079,0.84 -13.704,0.689 -2.303,0.043 -4.562,-0.125 -6.777,-0.503 -2.21,-0.319 -4.202,-0.89 -5.975,-1.713 -1.768,-0.763 -3.199,-1.787 -4.295,-3.071 -1.091,-1.225 -1.639,-2.725 -1.644,-4.499 0.033,-2.072 1.035,-4.242 3.006,-6.508 2.034,-2.212 4.654,-4.08 7.86,-5.605 3.597,-1.848 7.238,-3.492 10.923,-4.931 3.685,-1.44 7.427,-2.913 11.225,-4.42 1.089,-0.491 2.211,-0.953 3.363,-1.388 1.152,-0.435 2.274,-0.898 3.363,-1.388 1.09,-0.49 2.085,-1.062 2.985,-1.716 0.964,-0.6 1.77,-1.336 2.42,-2.209 0.072,-0.656 -0.081,-1.148 -0.458,-1.477 -0.374,-0.269 -0.807,-0.535 -1.298,-0.796 -0.66,-0.132 -1.324,-0.322 -1.991,-0.571 -0.61,-0.254 -1.301,-0.412 -2.074,-0.476 -2.093,-0.328 -4.266,-0.531 -6.519,-0.611 -2.19,-0.024 -4.511,0.197 -6.963,0.663 -2.22,0.391 -4.425,0.989 -6.617,1.792 -2.191,0.804 -4.284,1.748 -6.279,2.834 -1.994,1.085 -3.861,2.309 -5.599,3.672 -1.738,1.364 -3.265,2.801 -4.579,4.312 -1.838,-1.765 -3.739,-3.584 -5.703,-5.458 -1.96,-1.815 -3.983,-3.685 -6.069,-5.609 2.72,-2.556 5.686,-4.98 8.897,-7.274 3.274,-2.24 6.68,-4.281 10.218,-6.125 3.543,-1.784 7.222,-3.312 11.037,-4.584 3.815,-1.271 7.684,-2.192 11.606,-2.761 7.01,-1.257 13.394,-1.732 19.152,-1.424 5.763,0.367 11.087,1.238 15.974,2.613 1.874,0.578 3.581,1.317 5.123,2.215 1.604,0.953 2.922,2.044 3.954,3.273 1.091,1.225 1.839,2.622 2.244,4.191 0.464,1.564 0.492,3.248 0.086,5.05 -0.439,1.332 -1.154,2.535 -2.144,3.61 -0.927,1.129 -2.006,2.18 -3.24,3.153 -1.175,0.969 -2.47,1.888 -3.888,2.756 -1.419,0.867 -2.835,1.765 -4.249,2.691 -4.115,2.061 -8.18,3.971 -12.198,5.73 -3.959,1.755 -8.096,3.492 -12.411,5.212 -1.263,0.561 -2.558,1.066 -3.887,1.514 -1.326,0.506 -2.648,1.042 -3.969,1.607 -1.262,0.561 -2.491,1.179 -3.686,1.854 -1.136,0.67 -2.175,1.453 -3.119,2.346 0.265,0.396 0.639,0.666 1.121,0.809 0.488,0.203 1.027,0.313 1.621,0.331 0.596,0.076 1.218,0.093 1.865,0.047 0.652,0.014 1.276,0.059 1.873,0.136 2.06,-0.144 4.03,-0.31 5.909,-0.501 1.88,-0.19 3.892,-0.596 6.037,-1.219 3.662,-0.906 7.208,-2.218 10.637,-3.935 3.429,-1.718 6.661,-3.718 9.696,-6 1.099,1.343 2.328,2.44 3.689,3.292 1.419,0.847 2.725,1.762 3.917,2.743 m 92.483,-14.133 c -3.613,3.446 -7.537,6.608 -11.77,9.487 -4.166,2.929 -8.738,5.321 -13.715,7.176 -4.577,1.736 -9.097,3.048 -13.559,3.933 -4.453,0.944 -8.992,1.513 -13.614,1.706 -2.294,0.213 -4.559,0.214 -6.796,0.002 -2.228,-0.154 -4.256,-0.576 -6.085,-1.264 -1.821,-0.631 -3.324,-1.545 -4.512,-2.744 -1.179,-1.141 -1.836,-2.596 -1.974,-4.364 -0.121,-2.069 0.717,-4.307 2.514,-6.714 1.864,-2.357 4.338,-4.415 7.422,-6.173 3.45,-2.111 6.959,-4.02 10.526,-5.73 3.568,-1.709 7.19,-3.457 10.865,-5.242 1.051,-0.57 2.135,-1.114 3.251,-1.634 1.118,-0.519 2.201,-1.064 3.251,-1.634 1.05,-0.57 2,-1.214 2.85,-1.933 0.916,-0.669 1.665,-1.464 2.248,-2.383 0.023,-0.659 -0.165,-1.138 -0.566,-1.438 -0.393,-0.241 -0.845,-0.474 -1.354,-0.698 -0.668,-0.082 -1.344,-0.222 -2.028,-0.421 -0.627,-0.208 -1.328,-0.315 -2.104,-0.321 -2.111,-0.171 -4.293,-0.212 -6.546,-0.124 -2.186,0.138 -4.484,0.531 -6.894,1.178 -2.185,0.556 -4.34,1.315 -6.465,2.279 -2.126,0.964 -4.143,2.061 -6.051,3.292 -1.908,1.231 -3.679,2.591 -5.311,4.079 -1.633,1.488 -3.048,3.035 -4.246,4.64 -1.964,-1.623 -3.995,-3.296 -6.093,-5.019 -2.09,-1.664 -4.246,-3.378 -6.469,-5.143 2.522,-2.751 5.299,-5.389 8.331,-7.915 3.099,-2.476 6.344,-4.766 9.736,-6.867 3.4,-2.043 6.955,-3.84 10.665,-5.391 3.71,-1.552 7.499,-2.757 11.369,-3.616 6.897,-1.775 13.228,-2.723 18.993,-2.844 5.774,-0.062 11.149,0.41 16.124,1.418 1.912,0.439 3.669,1.048 5.273,1.829 1.67,0.831 3.066,1.821 4.187,2.97 1.179,1.14 2.028,2.478 2.549,4.012 0.579,1.526 0.732,3.203 0.461,5.031 -0.339,1.36 -0.962,2.613 -1.87,3.758 -0.84,1.195 -1.839,2.324 -2.996,3.386 -1.099,1.054 -2.324,2.066 -3.674,3.037 -1.349,0.971 -2.695,1.97 -4.036,3 -3.95,2.361 -7.863,4.568 -11.738,6.62 -3.818,2.044 -7.815,4.084 -11.991,6.12 -1.216,0.654 -2.471,1.253 -3.763,1.798 -1.284,0.604 -2.564,1.236 -3.839,1.898 -1.216,0.654 -2.396,1.361 -3.537,2.123 -1.083,0.753 -2.062,1.61 -2.936,2.572 0.293,0.375 0.685,0.615 1.178,0.723 0.501,0.166 1.048,0.236 1.64,0.209 0.601,0.032 1.222,0.002 1.865,-0.091 0.65,-0.035 1.276,-0.036 1.877,-0.004 2.044,-0.297 3.996,-0.609 5.856,-0.939 1.86,-0.329 3.836,-0.884 5.929,-1.664 3.585,-1.176 7.024,-2.748 10.316,-4.715 3.291,-1.968 6.365,-4.202 9.222,-6.703 1.196,1.257 2.504,2.26 3.924,3.008 1.478,0.74 2.848,1.554 4.11,2.444 m 93.665,-30.438 c -0.878,3.859 -2.571,7.613 -5.081,11.262 -2.503,3.708 -5.583,7.312 -9.242,10.81 -3.733,3.389 -7.913,6.537 -12.539,9.445 -4.626,2.907 -9.463,5.098 -14.509,6.573 -5.353,1.87 -10.543,2.916 -15.57,3.139 -5.027,0.222 -9.58,-0.27 -13.659,-1.476 -4.489,-1.154 -8.068,-3.108 -10.737,-5.862 -2.662,-2.694 -4.192,-6.069 -4.588,-10.122 -0.623,-4.441 0.138,-9.207 2.287,-14.297 2.214,-5.04 5.811,-9.957 10.793,-14.754 2.505,-2.281 5.201,-4.467 8.087,-6.559 2.894,-2.034 5.898,-3.902 9.012,-5.606 3.121,-1.646 6.298,-3.091 9.53,-4.334 3.298,-1.193 6.575,-2.085 9.83,-2.677 6.591,-1.492 12.39,-1.724 17.398,-0.695 5.066,1.021 9.146,2.941 12.241,5.76 3.034,2.35 5.144,5.144 6.328,8.384 1.251,3.29 1.391,6.96 0.419,11.009 m -19.034,5.364 c 0.23,-1.933 0.003,-3.718 -0.682,-5.355 -0.618,-1.587 -1.817,-2.833 -3.597,-3.736 -1.714,-0.853 -3.867,-1.412 -6.458,-1.677 -2.584,-0.207 -5.338,0.113 -8.264,0.961 -2.94,0.73 -5.869,1.786 -8.786,3.168 -2.859,1.375 -5.405,3.096 -7.64,5.165 -2.418,2.032 -4.174,4.129 -5.267,6.289 -1.094,2.162 -1.609,4.19 -1.547,6.085 0.07,1.954 0.546,3.827 1.428,5.617 0.948,1.843 2.568,3.124 4.86,3.844 1.824,0.779 4.035,1.092 6.632,0.941 2.606,-0.094 5.225,-0.545 7.858,-1.356 2.749,-0.825 5.334,-2.016 7.753,-3.573 2.426,-1.498 4.658,-3.12 6.697,-4.866 1.855,-1.782 3.428,-3.676 4.719,-5.684 1.299,-1.95 2.063,-3.891 2.294,-5.823 m 84.31,3.436 c -0.657,2.125 -1.965,4.243 -3.925,6.356 -1.897,2.166 -4.108,4.091 -6.636,5.776 -3.185,2.329 -6.553,4.23 -10.104,5.701 -3.552,1.471 -7.149,2.739 -10.791,3.804 -3.006,0.894 -5.999,1.58 -8.979,2.058 -2.98,0.478 -5.916,0.775 -8.807,0.891 -1.578,0.246 -3.107,0.369 -4.587,0.371 -1.416,0.056 -2.857,0.172 -4.322,0.35 -0.663,-3.794 -1.31,-7.767 -1.942,-11.919 -0.573,-4.156 -1.043,-8.498 -1.409,-13.026 -0.308,-4.533 -0.457,-9.287 -0.444,-14.259 0.011,-4.974 0.271,-10.175 0.779,-15.602 3.167,-1.085 6.357,-1.906 9.568,-2.462 3.269,-0.56 6.492,-0.969 9.667,-1.226 -0.01,4.263 0.054,8.342 0.191,12.237 0.197,3.892 0.213,7.737 0.047,11.539 2.975,-0.537 5.818,-0.885 8.527,-1.045 2.71,-0.16 5.43,-0.203 8.16,-0.128 3.719,-0.123 7.161,-0.017 10.325,0.319 3.228,0.39 6.134,1.19 8.719,2.402 1.943,0.612 3.529,1.549 4.756,2.811 1.289,1.317 1.692,3 1.207,5.052 m -17.948,6.425 c 0.109,-0.837 -0.035,-1.536 -0.437,-2.095 -0.395,-0.501 -0.962,-0.929 -1.701,-1.283 -0.735,-0.296 -1.582,-0.523 -2.542,-0.682 -0.901,-0.164 -1.83,-0.296 -2.785,-0.397 -2.081,-0.127 -4.272,-0.127 -6.57,-0.001 -2.298,0.127 -4.759,0.445 -7.381,0.953 l -1.22,0.277 -0.413,0.388 -0.604,0.227 c 0.158,1.94 0.281,3.824 0.369,5.653 0.089,1.827 0.114,3.601 0.076,5.321 0.657,0.065 1.281,0.103 1.874,0.114 0.657,0.065 1.307,0.072 1.954,0.02 1.402,-0.232 2.836,-0.437 4.302,-0.615 1.524,-0.183 3.068,-0.485 4.632,-0.908 1.035,-0.379 2.126,-0.793 3.273,-1.241 1.207,-0.453 2.318,-0.987 3.334,-1.602 1.02,-0.556 1.886,-1.189 2.598,-1.897 0.717,-0.65 1.131,-1.394 1.241,-2.232 m 108.068,-23.025 c -1.269,3.748 -3.341,7.307 -6.213,10.679 -2.871,3.431 -6.307,6.698 -10.307,9.801 -4.061,2.986 -8.543,5.687 -13.444,8.103 -4.902,2.415 -9.938,4.097 -15.109,5.043 -5.517,1.309 -10.788,1.815 -15.811,1.519 -5.024,-0.297 -9.501,-1.254 -13.434,-2.874 -4.346,-1.611 -7.704,-3.923 -10.076,-6.936 -2.371,-2.955 -3.544,-6.469 -3.521,-10.542 -0.163,-4.481 1.086,-9.143 3.747,-13.985 2.721,-4.785 6.806,-9.306 12.255,-13.565 2.727,-2.01 5.633,-3.907 8.72,-5.691 3.087,-1.724 6.268,-3.273 9.54,-4.647 3.275,-1.316 6.584,-2.426 9.927,-3.33 3.403,-0.846 6.754,-1.397 10.053,-1.65 6.71,-0.806 12.501,-0.438 17.377,1.101 4.934,1.537 8.794,3.867 11.582,6.989 2.777,2.65 4.588,5.647 5.433,8.991 0.905,3.402 0.665,7.067 -0.719,10.994 m -19.485,3.375 c 0.428,-1.899 0.386,-3.697 -0.125,-5.397 -0.452,-1.642 -1.517,-3.005 -3.194,-4.086 -1.617,-1.025 -3.701,-1.803 -6.251,-2.334 -2.549,-0.472 -5.322,-0.437 -8.319,0.105 -3,0.424 -6.022,1.173 -9.066,2.247 -2.985,1.073 -5.695,2.523 -8.132,4.35 -2.614,1.772 -4.576,3.677 -5.886,5.714 -1.31,2.037 -2.032,4.001 -2.165,5.893 -0.132,1.951 0.149,3.862 0.841,5.735 0.754,1.93 2.233,3.371 4.439,4.323 1.734,0.962 3.9,1.502 6.501,1.619 2.6,0.176 5.252,-0.004 7.954,-0.539 2.82,-0.538 5.514,-1.457 8.08,-2.755 2.568,-1.241 4.955,-2.624 7.163,-4.151 2.028,-1.582 3.789,-3.305 5.279,-5.169 1.493,-1.805 2.453,-3.657 2.881,-5.555 m 81.876,-11.519 c -5.3,-0.361 -10.845,-0.496 -16.634,-0.402 -5.73,0.095 -11.811,0.119 -18.245,0.073 -1.115,8.285 -2.15,15.953 -3.104,23.004 -0.895,7.053 -1.749,13.784 -2.563,20.19 -3.253,0.182 -6.444,0.277 -9.574,0.287 -3.131,0.067 -6.316,-0.014 -9.555,-0.245 -0.491,-7.928 -0.636,-16.494 -0.434,-25.696 0.26,-9.142 1.264,-19.32 3.013,-30.535 5.478,-1.344 10.913,-2.305 16.306,-2.885 5.391,-0.521 10.594,-0.753 15.61,-0.696 5.076,0.059 9.905,0.375 14.49,0.948 4.644,0.575 8.956,1.345 12.937,2.31 -0.44,2.464 -0.846,4.811 -1.219,7.042 -0.315,2.232 -0.657,4.434 -1.028,6.605 m 8.883,-13.277 c -1.641,7.635 -3.128,14.749 -4.461,21.341 -1.275,6.596 -2.442,12.904 -3.5,18.923 l 20.005,-0.685 c 3.348,-11.896 6.771,-25.324 10.269,-40.285 -1.357,-0.92 -3.068,-1.42 -5.132,-1.501 -2.068,-0.022 -4.608,-0.075 -7.618,-0.161 -1.668,0.183 -3.367,0.393 -5.098,0.631 -1.673,0.241 -3.161,0.82 -4.465,1.737 m 7.902,53.58 c 0.37,-1.098 0.682,-2.201 0.934,-3.307 0.307,-1.044 0.648,-2.145 1.022,-3.302 l -19.01,0.398 c -0.21,1.346 -0.417,2.662 -0.623,3.949 -0.15,1.35 -0.33,2.698 -0.54,4.044 2.637,0.356 5.559,0.436 8.766,0.239 3.262,-0.134 6.412,-0.808 9.451,-2.021 m 89.447,-1.934 c -4.36,2.433 -8.949,4.515 -13.766,6.246 -4.765,1.796 -9.79,2.97 -15.073,3.523 -4.865,0.538 -9.569,0.679 -14.111,0.422 -4.548,-0.199 -9.085,-0.782 -13.609,-1.749 -2.274,-0.367 -4.468,-0.932 -6.581,-1.696 -2.119,-0.706 -3.977,-1.62 -5.577,-2.744 -1.604,-1.065 -2.832,-2.326 -3.682,-3.784 -0.857,-1.399 -1.131,-2.972 -0.822,-4.718 0.399,-2.034 1.77,-3.992 4.111,-5.873 2.394,-1.817 5.303,-3.192 8.729,-4.125 3.867,-1.181 7.741,-2.154 11.624,-2.918 3.881,-0.764 7.825,-1.552 11.83,-2.362 1.159,-0.289 2.344,-0.546 3.555,-0.77 1.212,-0.224 2.397,-0.481 3.557,-0.77 1.158,-0.289 2.239,-0.676 3.241,-1.161 1.055,-0.419 1.979,-1.001 2.772,-1.745 0.188,-0.633 0.124,-1.144 -0.189,-1.534 -0.32,-0.332 -0.698,-0.67 -1.136,-1.014 -0.626,-0.247 -1.246,-0.552 -1.859,-0.915 -0.555,-0.357 -1.207,-0.636 -1.957,-0.836 -2.001,-0.693 -4.104,-1.278 -6.307,-1.755 -2.151,-0.413 -4.474,-0.606 -6.97,-0.581 -2.255,-0.008 -4.531,0.189 -6.83,0.592 -2.299,0.402 -4.527,0.961 -6.681,1.676 -2.156,0.715 -4.209,1.589 -6.162,2.623 -1.952,1.034 -3.708,2.178 -5.27,3.432 -1.496,-2.062 -3.045,-4.189 -4.646,-6.382 -1.608,-2.133 -3.267,-4.331 -4.98,-6.595 3.129,-2.033 6.478,-3.895 10.045,-5.583 3.619,-1.624 7.333,-3.03 11.142,-4.218 3.802,-1.128 7.694,-1.981 11.673,-2.557 3.98,-0.575 7.951,-0.796 11.913,-0.661 7.121,0.003 13.488,0.667 19.101,1.99 5.606,1.382 10.693,3.183 15.259,5.4 1.741,0.903 3.291,1.932 4.649,3.088 1.41,1.222 2.514,2.53 3.312,3.922 0.857,1.399 1.345,2.906 1.466,4.522 0.179,1.622 -0.091,3.284 -0.81,4.986 -0.668,1.233 -1.585,2.291 -2.749,3.173 -1.112,0.947 -2.362,1.79 -3.747,2.53 -1.328,0.745 -2.766,1.42 -4.316,2.022 -1.549,0.603 -3.101,1.235 -4.657,1.897 -4.415,1.3 -8.755,2.459 -13.02,3.479 -4.207,1.025 -8.587,2.003 -13.14,2.932 -1.341,0.328 -2.706,0.595 -4.092,0.8 -1.395,0.264 -2.792,0.557 -4.192,0.88 -1.341,0.328 -2.66,0.718 -3.956,1.171 -1.236,0.459 -2.398,1.045 -3.484,1.757 0.19,0.436 0.51,0.768 0.96,0.995 0.444,0.285 0.955,0.49 1.535,0.612 0.574,0.181 1.184,0.307 1.829,0.377 0.639,0.129 1.245,0.284 1.819,0.466 2.053,0.223 4.021,0.408 5.904,0.553 1.884,0.146 3.935,0.102 6.157,-0.131 3.765,-0.243 7.488,-0.906 11.167,-1.989 3.678,-1.083 7.213,-2.479 10.604,-4.187 0.844,1.517 1.86,2.814 3.048,3.893 1.247,1.085 2.37,2.217 3.369,3.394" /><path
       inkscape:connector-curvature="0"
       id="path26"
       style="fill:#d22027;fill-opacity:1;fill-rule:nonzero;stroke:none;"
       d="m 152.0611,109.256 c -43.652,-0.852 -82.943,-9.987 -120.754,-34.385 -1.895,-1.221 -2.44,-3.747 -1.218,-5.641 1.221,-1.895 3.747,-2.44 5.642,-1.218 36.438,23.512 73.872,32.281 116.495,33.113 42.624,0.832 90.358,-6.392 146.578,-14.793 112.439,-16.802 258.738,-38.294 466.4,-8.762 2.23,0.321 3.778,2.388 3.458,4.618 -0.32,2.23 -2.388,3.778 -4.618,3.458 -206.591,-29.381 -351.599,-8.037 -464.022,8.761 -56.211,8.4 -104.308,15.701 -147.961,14.849" /><path
       inkscape:connector-curvature="0"
       id="path30"
       style="fill:#d22027;fill-opacity:1;fill-rule:nonzero;stroke:none;"
       d="m 566.1689,15.9845 c -1.124,-0.8 -2.623,-1.089 -4.231,-1.12 -3.319,-0.014 -5.623,1.081 -5.811,10.571 -0.167,8.452 2.726,11.673 6.148,11.741 1.608,0.031 2.443,-0.212 3.443,-0.97 l 0.451,-20.222 z m -0.499,22.659 c -1.105,0.807 -2.459,1.093 -4.275,1.057 -4.717,-0.094 -8.519,-4.63 -8.322,-14.586 0.226,-11.458 3.835,-12.944 8.657,-12.848 3.059,0.06 5.59,0.68 7.332,1.7 l -0.737,37.334 c -2.283,-0.045 -2.903,-0.056 -2.877,-1.456 l 0.222,-11.201 z m 16.858,1.628 c -4.406,-0.128 -9.242,-1.566 -8.841,-15.407 0.31,-10.679 3.935,-12.234 8.86,-12.092 3.784,0.11 7.013,1.5 6.995,2.123 -0.023,0.777 -0.161,1.966 -0.439,2.633 -1.575,-1.187 -3.838,-1.876 -6.377,-1.948 -3.473,-0.101 -5.837,0.868 -6.122,8.902 2.281,0.066 8.035,0.284 12.364,1.292 0.312,1.721 0.395,4.214 0.332,6.392 -0.149,5.184 -2.262,8.236 -6.772,8.105 m -0.183,-2.599 c 3.11,0.09 4,-2.012 4.173,-6.158 0.031,-1.088 0.017,-2.386 -0.102,-3.635 -2.883,-0.81 -7.807,-0.952 -9.88,-1.012 0.089,9.444 3.164,10.727 5.809,10.805 m 18.519,3.233 c -5.079,-0.199 -8.32,-2.246 -8.172,-6.029 0.077,-1.97 0.914,-3.442 3.318,-5.216 l 6.043,-4.539 c 2.137,-1.525 3.023,-2.942 3.083,-4.498 0.124,-3.161 -1.949,-4.54 -5.421,-4.676 -2.436,-0.095 -4.007,0.258 -5.598,1.13 -0.495,-0.642 -0.671,-1.427 -0.649,-1.998 0.037,-0.932 2.619,-1.921 6.609,-1.764 5.286,0.206 8.404,2.768 8.214,7.588 -0.093,2.384 -1.252,4.155 -3.767,6.08 l -6.412,4.679 c -1.498,1.136 -2.156,2.043 -2.205,3.287 -0.083,2.126 2.312,3.257 5.473,3.382 2.229,0.086 3.904,-0.315 5.711,-1.386 0.394,0.535 0.625,1.27 0.605,1.789 -0.027,0.725 -2.116,2.355 -6.832,2.171 m 18.725,0.847 c -5.076,-0.256 -8.295,-2.339 -8.104,-6.121 0.099,-1.968 0.952,-3.431 3.377,-5.178 l 6.093,-4.471 c 2.153,-1.5 3.055,-2.909 3.132,-4.464 0.16,-3.158 -1.897,-4.56 -5.369,-4.736 -2.435,-0.123 -4.009,0.214 -5.609,1.068 -0.487,-0.647 -0.655,-1.435 -0.627,-2.005 0.047,-0.933 2.64,-1.892 6.628,-1.691 5.283,0.267 8.373,2.863 8.129,7.68 -0.119,2.383 -1.299,4.141 -3.835,6.038 l -6.463,4.606 c -1.512,1.12 -2.18,2.02 -2.243,3.263 -0.106,2.123 2.277,3.283 5.435,3.442 2.229,0.113 3.908,-0.27 5.727,-1.321 0.389,0.539 0.612,1.277 0.585,1.794 -0.037,0.726 -2.142,2.334 -6.856,2.096 m 10.749,-13.257 c 0.734,-11.698 3.911,-13.473 9.192,-13.141 5.279,0.331 8.056,4.922 7.472,14.239 -0.666,10.611 -3.604,13.544 -8.937,13.211 -5.382,-0.339 -8.328,-4.733 -7.727,-14.309 m 3.067,-0.015 c -0.546,8.696 1.459,11.524 4.772,11.732 3.262,0.205 5.202,-1.753 5.764,-10.707 0.51,-8.126 -1.462,-11.472 -4.724,-11.677 -3.26,-0.205 -5.25,1.697 -5.812,10.652 m 19.603,-20.715 c 0.075,-0.982 0.294,-1.121 1.276,-1.046 0.621,0.047 1.186,0.141 1.64,0.333 l -0.854,11.17 c 0.791,-0.824 2.314,-1.697 4.538,-1.527 3.052,0.234 8.565,2.943 7.495,16.958 -0.648,8.48 -4.111,10.92 -9.385,10.517 -2.794,-0.212 -5.228,-1.022 -7.294,-2.585 l 2.584,-33.82 z m 0.402,32.176 c 1.175,0.974 2.639,1.553 4.139,1.668 3.878,0.296 5.933,-1.42 6.495,-8.762 0.861,-11.273 -3.293,-13.411 -5.362,-13.57 -1.447,-0.11 -2.844,0.46 -3.853,2.099 l -1.419,18.565 z m 17.088,-8.607 c 1.058,-11.673 4.283,-13.359 9.552,-12.882 5.269,0.478 7.918,5.144 7.075,14.442 -0.959,10.588 -3.978,13.439 -9.298,12.956 -5.371,-0.486 -8.194,-4.96 -7.329,-14.516 m 3.066,0.07 c -0.786,8.677 1.14,11.559 4.446,11.86 3.254,0.294 5.248,-1.608 6.059,-10.544 0.734,-8.109 -1.145,-11.508 -4.399,-11.803 -3.254,-0.295 -5.296,1.552 -6.106,10.487 m 18.22,27.254 c -2.271,-0.23 -2.837,-0.287 -2.697,-1.681 l 3.686,-36.533 c 2.891,0.292 2.839,0.287 2.772,0.958 l -3.761,37.256 z m 9.928,-11.212 c -2.269,-0.243 -2.94,-0.315 -2.79,-1.707 l 2.619,-24.392 c 2.888,0.311 2.939,0.317 2.868,0.987 l -2.697,25.112 z m -4.017,8.749 c 0.183,-1.701 0.77,-2.316 1.802,-2.205 1.186,0.127 1.659,1.065 1.493,2.612 -0.12,1.603 -0.61,2.281 -1.796,2.154 -1.135,-0.121 -1.608,-1.06 -1.499,-2.561 m 17.004,-6.492 c -5.048,-0.594 -8.121,-2.888 -7.678,-6.648 0.231,-1.957 1.18,-3.36 3.715,-4.942 l 6.378,-4.053 c 2.248,-1.354 3.242,-2.699 3.424,-4.244 0.37,-3.142 -1.589,-4.679 -5.042,-5.085 -2.42,-0.285 -4.013,-0.055 -5.668,0.691 -0.442,-0.679 -0.558,-1.476 -0.491,-2.043 0.11,-0.926 2.762,-1.711 6.726,-1.244 5.255,0.618 8.162,3.415 7.599,8.205 -0.278,2.369 -1.574,4.045 -4.23,5.768 l -6.757,4.166 c -1.581,1.016 -2.309,1.869 -2.453,3.106 -0.25,2.112 2.05,3.426 5.192,3.796 2.214,0.26 3.917,-0.008 5.802,-0.936 0.352,0.564 0.524,1.315 0.464,1.831 -0.085,0.72 -2.294,2.184 -6.981,1.632 m 13.941,-23.164 c 0.184,-1.44 0.914,-2.236 2.457,-2.039 1.389,0.178 2.139,1.267 1.968,2.606 -0.166,1.285 -1.017,2.222 -2.56,2.025 -1.338,-0.171 -2.023,-1.357 -1.865,-2.592 m 20.485,3.586 c -1.023,-0.928 -2.478,-1.391 -4.07,-1.613 -3.295,-0.405 -5.712,0.411 -7.018,9.812 -1.162,8.373 1.331,11.915 4.722,12.384 1.592,0.221 2.449,0.078 3.533,-0.556 l 2.833,-20.027 z m -3.169,22.441 c -1.193,0.673 -2.572,0.794 -4.369,0.545 -4.675,-0.649 -7.914,-5.601 -6.544,-15.465 1.575,-11.352 5.335,-12.401 10.112,-11.738 3.031,0.421 5.469,1.336 7.08,2.555 l -5.135,36.986 c -2.261,-0.314 -2.877,-0.4 -2.685,-1.787 l 1.541,-11.096 z m 16.388,3.652 c -4.357,-0.672 -8.978,-2.696 -6.87,-16.381 1.628,-10.56 5.416,-11.655 10.287,-10.905 3.741,0.577 6.773,2.356 6.678,2.971 -0.118,0.768 -0.403,1.932 -0.761,2.559 -1.415,-1.372 -3.576,-2.335 -6.088,-2.722 -3.434,-0.529 -5.899,0.14 -7.174,8.078 2.255,0.347 7.937,1.275 12.108,2.81 0.098,1.747 -0.126,4.231 -0.458,6.384 -0.791,5.126 -3.264,7.893 -7.722,7.206 m 0.138,-2.603 c 3.075,0.475 4.219,-1.501 4.902,-5.593 0.167,-1.077 0.312,-2.367 0.348,-3.621 -2.759,-1.16 -7.628,-1.91 -9.679,-2.226 -1.08,9.384 1.814,11.037 4.429,11.44" /></g></svg>